<svg width="226" height="50" viewBox="0 0 226 50" fill="none" xmlns="http://www.w3.org/2000/svg">
<circle cx="25" cy="25" r="25" fill="white"/>
<path d="M32.041 20.6667H31.4993C31.4977 20.1055 31.3504 19.5545 31.0718 19.0674C30.7932 18.5803 30.3928 18.1739 29.91 17.888C29.3577 16.4953 28.9804 15.0393 28.7868 13.5536C28.5815 12.0116 26.3503 12 24.4609 12H24.3773C22.565 12 20.3338 12.0116 20.1286 13.5536C19.935 15.0393 19.5577 16.4952 19.0054 17.888C18.5226 18.1739 18.1222 18.5803 17.8436 19.0673C17.565 19.5544 17.4176 20.1055 17.416 20.6667V29.3333C17.4176 29.8945 17.565 30.4456 17.8436 30.9326C18.1222 31.4197 18.5225 31.8261 19.0054 32.112C19.5577 33.5047 19.9349 34.9607 20.1286 36.4464C20.3338 37.9884 22.565 38 24.4545 38H24.5381C26.3503 38 28.5815 37.9884 28.7868 36.4464C28.9804 34.9607 29.3577 33.5048 29.91 32.112C30.3928 31.8261 30.7932 31.4197 31.0718 30.9327C31.3504 30.4456 31.4977 29.8945 31.4993 29.3333V23.9167H32.041C32.1122 23.9167 32.1826 23.9027 32.2484 23.8755C32.3141 23.8483 32.3738 23.8084 32.4241 23.7581C32.4744 23.7078 32.5143 23.6481 32.5415 23.5823C32.5687 23.5166 32.5827 23.4461 32.5827 23.375V21.2083C32.5827 21.1372 32.5687 21.0667 32.5415 21.001C32.5143 20.9353 32.4744 20.8755 32.4241 20.8252C32.3738 20.7749 32.3141 20.735 32.2484 20.7078C32.1826 20.6806 32.1122 20.6666 32.041 20.6667ZM21.2034 13.6964C21.2839 13.0892 23.2844 13.0833 24.464 13.0833H24.5286C25.6309 13.0833 27.6315 13.0892 27.7119 13.6964C27.8814 14.9738 28.1761 16.2315 28.5917 17.4512C28.4783 17.4335 28.364 17.422 28.2493 17.4167H20.666C20.5514 17.422 20.4371 17.4335 20.3237 17.4512C20.7393 16.2315 21.0339 14.9738 21.2034 13.6964ZM27.7119 36.3036C27.6315 36.9167 25.6458 36.9347 24.4186 36.9167C23.3226 36.9093 21.2839 36.9167 21.2035 36.3036C21.034 35.0262 20.7393 33.7685 20.3237 32.5488C20.4371 32.5665 20.5514 32.578 20.666 32.5833H28.2493C28.364 32.578 28.4783 32.5665 28.5917 32.5488C28.1761 33.7685 27.8814 35.0262 27.7119 36.3036ZM30.416 29.3333C30.4154 29.9078 30.1869 30.4585 29.7807 30.8647C29.3745 31.2709 28.8238 31.4993 28.2493 31.5H20.666C20.0916 31.4993 19.5409 31.2709 19.1347 30.8647C18.7285 30.4585 18.5 29.9078 18.4993 29.3333V20.6667C18.5 20.0922 18.7285 19.5415 19.1347 19.1353C19.5409 18.7291 20.0916 18.5007 20.666 18.5H28.2493C28.8238 18.5007 29.3745 18.7291 29.7807 19.1353C30.1869 19.5415 30.4154 20.0922 30.416 20.6667V29.3333Z" fill="black"/>
<path d="M73.324 35.252C71.476 35.252 69.9267 34.972 68.676 34.412C67.4253 33.852 66.4827 33.068 65.848 32.06C65.2133 31.052 64.8867 29.8947 64.868 28.588H69.32C69.3387 29.26 69.488 29.848 69.768 30.352C70.0667 30.8373 70.5147 31.22 71.112 31.5C71.728 31.78 72.5213 31.92 73.492 31.92C74.2387 31.92 74.892 31.836 75.452 31.668C76.012 31.4813 76.4413 31.2013 76.74 30.828C77.0387 30.436 77.188 29.9413 77.188 29.344C77.188 28.896 77.1133 28.5227 76.964 28.224C76.8147 27.9253 76.5533 27.6733 76.18 27.468C75.8253 27.2627 75.34 27.0947 74.724 26.964C74.108 26.8147 73.3427 26.656 72.428 26.488C71.252 26.32 70.216 26.0773 69.32 25.76C68.4427 25.4427 67.7053 25.0507 67.108 24.584C66.5107 24.1173 66.0627 23.5573 65.764 22.904C65.4653 22.232 65.316 21.448 65.316 20.552C65.316 19.264 65.6333 18.1627 66.268 17.248C66.9213 16.3147 67.8453 15.596 69.04 15.092C70.2347 14.588 71.6533 14.336 73.296 14.336C74.9013 14.336 76.2827 14.588 77.44 15.092C78.5973 15.596 79.4933 16.3053 80.128 17.22C80.7813 18.1347 81.108 19.1987 81.108 20.412H76.712C76.6933 19.7587 76.516 19.2267 76.18 18.816C75.8627 18.4053 75.4427 18.1067 74.92 17.92C74.3973 17.7333 73.8093 17.64 73.156 17.64C72.4653 17.64 71.868 17.7333 71.364 17.92C70.8787 18.088 70.5053 18.3493 70.244 18.704C69.9827 19.04 69.852 19.4693 69.852 19.992C69.852 20.5333 69.992 20.972 70.272 21.308C70.552 21.6253 71.0467 21.8867 71.756 22.092C72.484 22.2787 73.4827 22.484 74.752 22.708C75.6293 22.8387 76.4787 23.016 77.3 23.24C78.1213 23.464 78.868 23.8 79.54 24.248C80.212 24.6773 80.744 25.284 81.136 26.068C81.528 26.8333 81.724 27.832 81.724 29.064C81.724 30.2773 81.4067 31.36 80.772 32.312C80.156 33.2453 79.2227 33.9733 77.972 34.496C76.74 35 75.1907 35.252 73.324 35.252ZM84.4671 35V19.992H88.4431L88.5831 22.708H88.7511C89.1431 21.7 89.7498 20.9533 90.5711 20.468C91.4111 19.964 92.3351 19.712 93.3431 19.712C94.3885 19.712 95.3405 19.964 96.1991 20.468C97.0765 20.972 97.7111 21.84 98.1031 23.072H98.3271C98.7005 21.952 99.3351 21.112 100.231 20.552C101.127 19.992 102.144 19.712 103.283 19.712C104.254 19.712 105.122 19.9173 105.887 20.328C106.671 20.7387 107.287 21.4013 107.735 22.316C108.183 23.212 108.407 24.416 108.407 25.928V35H104.291V26.824C104.291 25.984 104.198 25.284 104.011 24.724C103.843 24.164 103.554 23.7533 103.143 23.492C102.751 23.212 102.247 23.072 101.631 23.072C100.959 23.072 100.39 23.24 99.9231 23.576C99.4565 23.912 99.1018 24.3507 98.8591 24.892C98.6165 25.4333 98.4951 26.0213 98.4951 26.656V35H94.3791V26.824C94.3791 25.984 94.2858 25.284 94.0991 24.724C93.9125 24.164 93.6231 23.7533 93.2311 23.492C92.8391 23.212 92.3351 23.072 91.7191 23.072C91.0471 23.072 90.4778 23.24 90.0111 23.576C89.5445 23.912 89.1898 24.3507 88.9471 24.892C88.7045 25.4333 88.5831 26.0213 88.5831 26.656V35H84.4671ZM117.186 35.252C116.272 35.252 115.441 35.084 114.694 34.748C113.948 34.3933 113.304 33.8893 112.762 33.236C112.221 32.564 111.801 31.7427 111.502 30.772C111.222 29.8013 111.082 28.7093 111.082 27.496C111.082 25.8533 111.334 24.4533 111.838 23.296C112.361 22.12 113.08 21.2333 113.994 20.636C114.909 20.02 115.973 19.712 117.186 19.712C117.952 19.712 118.642 19.8333 119.258 20.076C119.874 20.3 120.406 20.6267 120.854 21.056C121.302 21.4667 121.629 21.952 121.834 22.512H122.058L122.226 19.992H126.118V35H122.226L122.058 32.452H121.834C121.536 33.292 120.966 33.9733 120.126 34.496C119.305 35 118.325 35.252 117.186 35.252ZM118.67 31.92C119.417 31.92 120.033 31.7613 120.518 31.444C121.022 31.1267 121.396 30.688 121.638 30.128C121.881 29.568 122.002 28.9333 122.002 28.224V26.74C122.002 26.012 121.872 25.3773 121.61 24.836C121.368 24.276 120.994 23.8373 120.49 23.52C120.005 23.2027 119.436 23.044 118.782 23.044C117.998 23.044 117.345 23.2213 116.822 23.576C116.318 23.9307 115.936 24.444 115.674 25.116C115.413 25.7693 115.282 26.5627 115.282 27.496C115.282 28.392 115.404 29.176 115.646 29.848C115.889 30.52 116.262 31.0333 116.766 31.388C117.27 31.7427 117.905 31.92 118.67 31.92ZM129.639 35V19.992H133.363L133.531 22.4H133.671C134.007 21.4293 134.539 20.7573 135.267 20.384C136.014 19.992 136.863 19.796 137.815 19.796C137.983 19.796 138.132 19.796 138.263 19.796C138.394 19.796 138.524 19.796 138.655 19.796V23.66C138.562 23.66 138.431 23.66 138.263 23.66C138.095 23.66 137.918 23.66 137.731 23.66C136.816 23.66 136.07 23.8 135.491 24.08C134.912 24.3413 134.483 24.7333 134.203 25.256C133.923 25.7787 133.774 26.4133 133.755 27.16V35H129.639ZM146.55 35C145.262 35 144.31 34.7013 143.694 34.104C143.078 33.488 142.77 32.5173 142.77 31.192V23.296H140.082V19.992H142.77V15.904L146.886 15.512V19.992H149.91V23.296H146.886V30.436C146.886 30.9027 146.998 31.22 147.222 31.388C147.446 31.556 147.763 31.64 148.174 31.64H149.91V35H146.55ZM163.495 35V17.948H167.863V35H163.495ZM157.475 18.368V14.588H173.995V18.368H157.475ZM175.959 35V19.992H180.075V35H175.959ZM178.003 18.228C177.369 18.228 176.846 18.06 176.435 17.724C176.025 17.388 175.819 16.9213 175.819 16.324C175.819 15.708 176.025 15.232 176.435 14.896C176.846 14.56 177.369 14.392 178.003 14.392C178.657 14.392 179.189 14.56 179.599 14.896C180.01 15.232 180.215 15.708 180.215 16.324C180.215 16.9213 180.01 17.388 179.599 17.724C179.189 18.06 178.657 18.228 178.003 18.228ZM183.616 35V19.992H187.592L187.732 22.708H187.9C188.292 21.7 188.898 20.9533 189.72 20.468C190.56 19.964 191.484 19.712 192.492 19.712C193.537 19.712 194.489 19.964 195.348 20.468C196.225 20.972 196.86 21.84 197.252 23.072H197.476C197.849 21.952 198.484 21.112 199.38 20.552C200.276 19.992 201.293 19.712 202.432 19.712C203.402 19.712 204.27 19.9173 205.036 20.328C205.82 20.7387 206.436 21.4013 206.884 22.316C207.332 23.212 207.556 24.416 207.556 25.928V35H203.44V26.824C203.44 25.984 203.346 25.284 203.16 24.724C202.992 24.164 202.702 23.7533 202.292 23.492C201.9 23.212 201.396 23.072 200.78 23.072C200.108 23.072 199.538 23.24 199.072 23.576C198.605 23.912 198.25 24.3507 198.008 24.892C197.765 25.4333 197.644 26.0213 197.644 26.656V35H193.528V26.824C193.528 25.984 193.434 25.284 193.248 24.724C193.061 24.164 192.772 23.7533 192.38 23.492C191.988 23.212 191.484 23.072 190.868 23.072C190.196 23.072 189.626 23.24 189.16 23.576C188.693 23.912 188.338 24.3507 188.096 24.892C187.853 25.4333 187.732 26.0213 187.732 26.656V35H183.616ZM217.509 35.28C215.941 35.28 214.607 34.9627 213.505 34.328C212.423 33.6933 211.592 32.7973 211.013 31.64C210.435 30.4827 210.145 29.1387 210.145 27.608C210.145 25.984 210.435 24.584 211.013 23.408C211.611 22.232 212.441 21.3267 213.505 20.692C214.588 20.0387 215.867 19.712 217.341 19.712C219.059 19.712 220.459 20.0853 221.541 20.832C222.643 21.5787 223.436 22.6053 223.921 23.912C224.407 25.2187 224.565 26.712 224.397 28.392H214.177C214.177 29.2133 214.308 29.9133 214.569 30.492C214.849 31.052 215.241 31.472 215.745 31.752C216.249 32.032 216.837 32.172 217.509 32.172C218.293 32.172 218.928 32.0133 219.413 31.696C219.899 31.3787 220.225 30.9587 220.393 30.436H224.285C224.136 31.4253 223.753 32.284 223.137 33.012C222.521 33.7213 221.728 34.2813 220.757 34.692C219.805 35.084 218.723 35.28 217.509 35.28ZM214.177 26.236L213.813 25.844H220.757L220.365 26.236C220.403 25.452 220.291 24.8173 220.029 24.332C219.787 23.828 219.432 23.4453 218.965 23.184C218.517 22.9227 217.976 22.792 217.341 22.792C216.707 22.792 216.147 22.932 215.661 23.212C215.195 23.4733 214.831 23.8653 214.569 24.388C214.327 24.892 214.196 25.508 214.177 26.236Z" fill="white"/>
</svg>
