<svg width="50" height="50" viewBox="0 0 50 50" fill="none" xmlns="http://www.w3.org/2000/svg">
<circle cx="25" cy="25" r="25" fill="black"/>
<path d="M32.041 20.6667H31.4993C31.4977 20.1055 31.3504 19.5545 31.0718 19.0674C30.7932 18.5803 30.3928 18.1739 29.91 17.888C29.3577 16.4953 28.9804 15.0393 28.7868 13.5536C28.5815 12.0116 26.3503 12 24.4609 12H24.3773C22.565 12 20.3338 12.0116 20.1286 13.5536C19.935 15.0393 19.5577 16.4952 19.0054 17.888C18.5226 18.1739 18.1222 18.5803 17.8436 19.0673C17.565 19.5544 17.4176 20.1055 17.416 20.6667V29.3333C17.4176 29.8945 17.565 30.4456 17.8436 30.9326C18.1222 31.4197 18.5225 31.8261 19.0054 32.112C19.5577 33.5047 19.9349 34.9607 20.1286 36.4464C20.3338 37.9884 22.565 38 24.4545 38H24.5381C26.3503 38 28.5815 37.9884 28.7868 36.4464C28.9804 34.9607 29.3577 33.5048 29.91 32.112C30.3928 31.8261 30.7932 31.4197 31.0718 30.9327C31.3504 30.4456 31.4977 29.8945 31.4993 29.3333V23.9167H32.041C32.1122 23.9167 32.1826 23.9027 32.2484 23.8755C32.3141 23.8483 32.3738 23.8084 32.4241 23.7581C32.4744 23.7078 32.5143 23.6481 32.5415 23.5823C32.5687 23.5166 32.5827 23.4461 32.5827 23.375V21.2083C32.5827 21.1372 32.5687 21.0667 32.5415 21.001C32.5143 20.9353 32.4744 20.8755 32.4241 20.8252C32.3738 20.7749 32.3141 20.735 32.2484 20.7078C32.1826 20.6806 32.1122 20.6666 32.041 20.6667ZM21.2034 13.6964C21.2839 13.0892 23.2844 13.0833 24.464 13.0833H24.5286C25.6309 13.0833 27.6315 13.0892 27.7119 13.6964C27.8814 14.9738 28.1761 16.2315 28.5917 17.4512C28.4783 17.4335 28.364 17.422 28.2493 17.4167H20.666C20.5514 17.422 20.4371 17.4335 20.3237 17.4512C20.7393 16.2315 21.0339 14.9738 21.2034 13.6964ZM27.7119 36.3036C27.6315 36.9167 25.6458 36.9347 24.4186 36.9167C23.3226 36.9093 21.2839 36.9167 21.2035 36.3036C21.034 35.0262 20.7393 33.7685 20.3237 32.5488C20.4371 32.5665 20.5514 32.578 20.666 32.5833H28.2493C28.364 32.578 28.4783 32.5665 28.5917 32.5488C28.1761 33.7685 27.8814 35.0262 27.7119 36.3036ZM30.416 29.3333C30.4154 29.9078 30.1869 30.4585 29.7807 30.8647C29.3745 31.2709 28.8238 31.4993 28.2493 31.5H20.666C20.0916 31.4993 19.5409 31.2709 19.1347 30.8647C18.7285 30.4585 18.5 29.9078 18.4993 29.3333V20.6667C18.5 20.0922 18.7285 19.5415 19.1347 19.1353C19.5409 18.7291 20.0916 18.5007 20.666 18.5H28.2493C28.8238 18.5007 29.3745 18.7291 29.7807 19.1353C30.1869 19.5415 30.4154 20.0922 30.416 20.6667V29.3333Z" fill="white"/>
</svg>
