<svg width="168" height="41" viewBox="0 0 168 41" fill="none" xmlns="http://www.w3.org/2000/svg">
<path d="M49.5195 28.3905H61.4715V24.7905H53.7675V11.2305H49.5195V28.3905Z" fill="black"/>
<path d="M68.552 25.9896C66.848 25.9896 65.96 24.5016 65.96 22.2696C65.96 20.0376 66.848 18.5256 68.552 18.5256C70.256 18.5256 71.168 20.0376 71.168 22.2696C71.168 24.5016 70.256 25.9896 68.552 25.9896ZM68.576 28.7736C72.536 28.7736 75.128 25.9656 75.128 22.2696C75.128 18.5736 72.536 15.7656 68.576 15.7656C64.64 15.7656 62 18.5736 62 22.2696C62 25.9656 64.64 28.7736 68.576 28.7736Z" fill="black"/>
<path d="M81.9827 32.6343C83.8068 32.6343 85.4148 32.2263 86.4948 31.2663C87.4788 30.3783 88.1268 29.0343 88.1268 27.1863V16.0983H84.3828V17.4183H84.3348C83.6148 16.3863 82.5108 15.7383 80.8788 15.7383C77.8308 15.7383 75.7188 18.2823 75.7188 21.8823C75.7188 25.6503 78.2868 27.7143 81.0468 27.7143C82.5348 27.7143 83.4707 27.1143 84.1908 26.2983H84.2868V27.5223C84.2868 29.0103 83.5908 29.8743 81.9348 29.8743C80.6388 29.8743 79.9907 29.3223 79.7747 28.6743H75.9827C76.3667 31.2423 78.5987 32.6343 81.9827 32.6343ZM81.9588 24.8103C80.4948 24.8103 79.5348 23.6103 79.5348 21.7623C79.5348 19.8903 80.4948 18.6903 81.9588 18.6903C83.5908 18.6903 84.4548 20.0823 84.4548 21.7383C84.4548 23.4663 83.6628 24.8103 81.9588 24.8103Z" fill="black"/>
<path d="M95.8254 25.9896C94.1214 25.9896 93.2334 24.5016 93.2334 22.2696C93.2334 20.0376 94.1214 18.5256 95.8254 18.5256C97.5294 18.5256 98.4414 20.0376 98.4414 22.2696C98.4414 24.5016 97.5294 25.9896 95.8254 25.9896ZM95.8494 28.7736C99.8094 28.7736 102.401 25.9656 102.401 22.2696C102.401 18.5736 99.8094 15.7656 95.8494 15.7656C91.9134 15.7656 89.2734 18.5736 89.2734 22.2696C89.2734 25.9656 91.9134 28.7736 95.8494 28.7736Z" fill="black"/>
<path d="M103.543 28.3905H107.455V16.1025H103.543V28.3905ZM103.543 14.3985H107.455V11.2305H103.543V14.3985Z" fill="black"/>
<path d="M109.152 32.4423H113.064V27.1143H113.112C113.88 28.1463 115.008 28.7703 116.592 28.7703C119.808 28.7703 121.944 26.2263 121.944 22.2423C121.944 18.5463 119.952 15.7383 116.688 15.7383C115.008 15.7383 113.808 16.4823 112.968 17.5863H112.896V16.0983H109.152V32.4423ZM115.584 25.7463C113.904 25.7463 112.944 24.3783 112.944 22.3863C112.944 20.3943 113.808 18.8823 115.512 18.8823C117.192 18.8823 117.984 20.2743 117.984 22.3863C117.984 24.4743 117.072 25.7463 115.584 25.7463Z" fill="black"/>
<path d="M128.312 28.7703C131.528 28.7703 133.904 27.3783 133.904 24.6903C133.904 21.5463 131.36 20.9943 129.2 20.6343C127.64 20.3463 126.248 20.2263 126.248 19.3623C126.248 18.5943 126.992 18.2343 127.952 18.2343C129.032 18.2343 129.776 18.5703 129.92 19.6743H133.52C133.328 17.2503 131.456 15.7383 127.976 15.7383C125.072 15.7383 122.672 17.0823 122.672 19.6743C122.672 22.5543 124.952 23.1303 127.088 23.4903C128.72 23.7783 130.208 23.8983 130.208 25.0023C130.208 25.7943 129.464 26.2263 128.288 26.2263C126.992 26.2263 126.176 25.6263 126.032 24.4023H122.336C122.456 27.1143 124.712 28.7703 128.312 28.7703Z" fill="black"/>
<path d="M139.218 28.7496C140.922 28.7496 142.002 28.0776 142.89 26.8776H142.962V28.3896H146.706V16.1016H142.794V22.9656C142.794 24.4296 141.978 25.4376 140.634 25.4376C139.386 25.4376 138.786 24.6936 138.786 23.3496V16.1016H134.898V24.1656C134.898 26.9016 136.386 28.7496 139.218 28.7496Z" fill="black"/>
<path d="M148.41 28.3863H152.322V21.4983C152.322 20.0343 153.042 19.0023 154.266 19.0023C155.442 19.0023 155.994 19.7703 155.994 21.0903V28.3863H159.906V21.4983C159.906 20.0343 160.602 19.0023 161.85 19.0023C163.026 19.0023 163.578 19.7703 163.578 21.0903V28.3863H167.49V20.3943C167.49 17.6343 166.098 15.7383 163.314 15.7383C161.73 15.7383 160.41 16.4103 159.45 17.8983H159.402C158.778 16.5783 157.554 15.7383 155.946 15.7383C154.17 15.7383 152.994 16.5783 152.226 17.8503H152.154V16.0983H148.41V28.3863Z" fill="black"/>
<path d="M25.6511 1.41323L21.7181 0.359375L18.4037 12.7289L15.4114 1.56161L11.4783 2.61547L14.7113 14.6809L6.65867 6.62835L3.77948 9.50754L12.6122 18.3403L1.61245 15.3929L0.558594 19.3259L12.5772 22.5463C12.4396 21.9528 12.3668 21.3344 12.3668 20.699C12.3668 16.2014 16.0128 12.5554 20.5104 12.5554C25.008 12.5554 28.654 16.2014 28.654 20.699C28.654 21.3303 28.5821 21.9449 28.4462 22.5349L39.3689 25.4616L40.4227 21.5286L28.3563 18.2954L39.3568 15.3478L38.3029 11.4148L26.237 14.6478L34.2896 6.59529L31.4104 3.7161L22.7002 12.4263L25.6511 1.41323Z" fill="black"/>
<path d="M28.4361 22.582C28.0989 24.0076 27.387 25.2883 26.4102 26.3144L34.3232 34.2275L37.2024 31.3483L28.4361 22.582Z" fill="black"/>
<path d="M26.3303 26.3945C25.3417 27.4042 24.0924 28.1577 22.6914 28.546L25.5708 39.292L29.5038 38.2381L26.3303 26.3945Z" fill="black"/>
<path d="M22.5445 28.5878C21.8945 28.7549 21.2132 28.8437 20.5111 28.8437C19.7589 28.8437 19.0305 28.7417 18.339 28.5508L15.457 39.3066L19.39 40.3604L22.5445 28.5878Z" fill="black"/>
<path d="M18.199 28.5114C16.8194 28.1038 15.5923 27.3407 14.6239 26.3281L6.69141 34.2606L9.5706 37.1398L18.199 28.5114Z" fill="black"/>
<path d="M14.5585 26.2565C13.6067 25.2375 12.9134 23.9739 12.5834 22.5703L1.625 25.5066L2.67885 29.4396L14.5585 26.2565Z" fill="black"/>
</svg>
