<svg width="170" height="41" viewBox="0 0 170 41" fill="none" xmlns="http://www.w3.org/2000/svg">
<path d="M51.6641 28.3592H63.6161V24.7592H55.9121V11.1992H51.6641V28.3592Z" fill="black"/>
<path d="M70.6965 25.9584C68.9925 25.9584 68.1045 24.4704 68.1045 22.2384C68.1045 20.0064 68.9925 18.4944 70.6965 18.4944C72.4005 18.4944 73.3125 20.0064 73.3125 22.2384C73.3125 24.4704 72.4005 25.9584 70.6965 25.9584ZM70.7205 28.7424C74.6805 28.7424 77.2725 25.9344 77.2725 22.2384C77.2725 18.5424 74.6805 15.7344 70.7205 15.7344C66.7845 15.7344 64.1445 18.5424 64.1445 22.2384C64.1445 25.9344 66.7845 28.7424 70.7205 28.7424Z" fill="black"/>
<path d="M84.1273 32.6069C85.9513 32.6069 87.5593 32.1989 88.6393 31.2389C89.6233 30.3509 90.2713 29.0069 90.2713 27.1589V16.0709H86.5273V17.3909H86.4793C85.7593 16.3589 84.6553 15.7109 83.0233 15.7109C79.9753 15.7109 77.8633 18.2549 77.8633 21.8549C77.8633 25.6229 80.4313 27.6869 83.1913 27.6869C84.6793 27.6869 85.6153 27.0869 86.3353 26.2709H86.4313V27.4949C86.4313 28.9829 85.7353 29.8469 84.0793 29.8469C82.7833 29.8469 82.1353 29.2949 81.9193 28.6469H78.1273C78.5113 31.2149 80.7433 32.6069 84.1273 32.6069ZM84.1033 24.7829C82.6393 24.7829 81.6793 23.5829 81.6793 21.7349C81.6793 19.8629 82.6393 18.6629 84.1033 18.6629C85.7353 18.6629 86.5993 20.0549 86.5993 21.7109C86.5993 23.4389 85.8073 24.7829 84.1033 24.7829Z" fill="black"/>
<path d="M97.97 25.9584C96.266 25.9584 95.378 24.4704 95.378 22.2384C95.378 20.0064 96.266 18.4944 97.97 18.4944C99.674 18.4944 100.586 20.0064 100.586 22.2384C100.586 24.4704 99.674 25.9584 97.97 25.9584ZM97.994 28.7424C101.954 28.7424 104.546 25.9344 104.546 22.2384C104.546 18.5424 101.954 15.7344 97.994 15.7344C94.058 15.7344 91.418 18.5424 91.418 22.2384C91.418 25.9344 94.058 28.7424 97.994 28.7424Z" fill="black"/>
<path d="M105.688 28.3592H109.599V16.0712H105.688V28.3592ZM105.688 14.3672H109.599V11.1992H105.688V14.3672Z" fill="black"/>
<path d="M111.301 32.4149H115.213V27.0869H115.261C116.029 28.1189 117.157 28.7429 118.741 28.7429C121.957 28.7429 124.093 26.1989 124.093 22.2149C124.093 18.5189 122.101 15.7109 118.837 15.7109C117.157 15.7109 115.957 16.4549 115.117 17.5589H115.045V16.0709H111.301V32.4149ZM117.733 25.7189C116.053 25.7189 115.093 24.3509 115.093 22.3589C115.093 20.3669 115.957 18.8549 117.661 18.8549C119.341 18.8549 120.133 20.2469 120.133 22.3589C120.133 24.4469 119.221 25.7189 117.733 25.7189Z" fill="black"/>
<path d="M130.46 28.7429C133.676 28.7429 136.052 27.3509 136.052 24.6629C136.052 21.5189 133.508 20.9669 131.348 20.6069C129.788 20.3189 128.396 20.1989 128.396 19.3349C128.396 18.5669 129.14 18.2069 130.1 18.2069C131.18 18.2069 131.924 18.5429 132.068 19.6469H135.668C135.476 17.2229 133.604 15.7109 130.124 15.7109C127.22 15.7109 124.82 17.0549 124.82 19.6469C124.82 22.5269 127.1 23.1029 129.236 23.4629C130.868 23.7509 132.356 23.8709 132.356 24.9749C132.356 25.7669 131.612 26.1989 130.436 26.1989C129.14 26.1989 128.324 25.5989 128.18 24.3749H124.484C124.604 27.0869 126.86 28.7429 130.46 28.7429Z" fill="black"/>
<path d="M141.367 28.7183C143.071 28.7183 144.151 28.0463 145.039 26.8463H145.111V28.3583H148.855V16.0703H144.943V22.9343C144.943 24.3983 144.127 25.4063 142.783 25.4063C141.535 25.4063 140.935 24.6623 140.935 23.3183V16.0703H137.047V24.1343C137.047 26.8703 138.535 28.7183 141.367 28.7183Z" fill="black"/>
<path d="M150.555 28.3589H154.467V21.4709C154.467 20.0069 155.187 18.9749 156.411 18.9749C157.587 18.9749 158.139 19.7429 158.139 21.0629V28.3589H162.051V21.4709C162.051 20.0069 162.747 18.9749 163.995 18.9749C165.171 18.9749 165.723 19.7429 165.723 21.0629V28.3589H169.635V20.3669C169.635 17.6069 168.243 15.7109 165.459 15.7109C163.875 15.7109 162.555 16.3829 161.595 17.8709H161.547C160.923 16.5509 159.699 15.7109 158.091 15.7109C156.315 15.7109 155.139 16.5509 154.371 17.8229H154.299V16.0709H150.555V28.3589Z" fill="black"/>
<path fill-rule="evenodd" clip-rule="evenodd" d="M20.4883 40.3593C31.534 40.3593 40.4883 31.405 40.4883 20.3593C40.4883 9.31368 31.534 0.359375 20.4883 0.359375C9.44257 0.359375 0.488281 9.31368 0.488281 20.3593C0.488281 31.405 9.44257 40.3593 20.4883 40.3593ZM26.7276 9.67621C27.0313 8.59742 25.9844 7.9595 25.0283 8.64067L11.6814 18.1489C10.6445 18.8876 10.8076 20.3593 11.9264 20.3593H15.441V20.3321H22.2908L16.7095 22.3014L14.249 31.0425C13.9453 32.1213 14.9921 32.7592 15.9483 32.078L29.2952 22.5698C30.3321 21.8311 30.1689 20.3593 29.0502 20.3593H23.7204L26.7276 9.67621Z" fill="black"/>
</svg>
