<svg width="202" height="41" viewBox="0 0 202 41" fill="none" xmlns="http://www.w3.org/2000/svg">
<path fill-rule="evenodd" clip-rule="evenodd" d="M25.5557 12.0447C23.9112 10.9459 21.9778 10.3594 20 10.3594V0.359375C23.9556 0.359375 27.8224 1.53236 31.1114 3.72998C34.4004 5.9276 36.9638 9.05119 38.4776 12.7057C39.9913 16.3602 40.3874 20.3816 39.6157 24.2612C38.844 28.1408 36.9392 31.7045 34.1421 34.5015C31.3451 37.2986 27.7814 39.2034 23.9018 39.9751C20.0222 40.7468 16.0008 40.3507 12.3463 38.837C8.6918 37.3232 5.56823 34.7598 3.37061 31.4708C1.17298 28.1818 0 24.315 0 20.3594H10C10 22.3372 10.5865 24.2706 11.6853 25.9151C12.7841 27.5596 14.3459 28.8413 16.1732 29.5982C18.0004 30.3551 20.0111 30.5531 21.9509 30.1672C23.8907 29.7814 25.6725 28.829 27.0711 27.4305C28.4696 26.0319 29.422 24.2501 29.8078 22.3103C30.1937 20.3705 29.9957 18.3598 29.2388 16.5326C28.4819 14.7053 27.2002 13.1435 25.5557 12.0447Z" fill="black"/>
<path fill-rule="evenodd" clip-rule="evenodd" d="M9.99999 0.35938C9.99999 1.6726 9.74134 2.97296 9.23879 4.18622C8.73624 5.39947 7.99965 6.50186 7.07106 7.43045C6.14248 8.35904 5.04009 9.09563 3.82683 9.59818C2.61357 10.1007 1.31321 10.3594 4.3711e-07 10.3594L0 20.3594C2.62643 20.3594 5.22715 19.8421 7.65367 18.837C10.0802 17.8319 12.285 16.3587 14.1421 14.5015C15.9993 12.6444 17.4725 10.4396 18.4776 8.01305C19.4827 5.58653 20 2.98581 20 0.359375L9.99999 0.35938Z" fill="black"/>
<path d="M125.618 14.8125H120.766V30.2248H125.618V14.8125Z" fill="black"/>
<path d="M121.308 11.926C121.815 12.4334 122.449 12.6871 123.21 12.6871C123.971 12.6871 124.595 12.4334 125.081 11.926C125.568 11.3975 125.811 10.7632 125.811 10.0232C125.811 9.26214 125.568 8.62786 125.081 8.12048C124.595 7.61306 123.971 7.35938 123.21 7.35938C122.449 7.35938 121.815 7.61306 121.308 8.12048C120.821 8.62786 120.578 9.26214 120.578 10.0232C120.578 10.7632 120.821 11.3975 121.308 11.926Z" fill="black"/>
<path d="M51.1562 30.2251V7.83594H56.1352V25.8488H66.0613V30.2251H51.1562Z" fill="black"/>
<path fill-rule="evenodd" clip-rule="evenodd" d="M75.0253 30.5748C73.4397 30.5748 72.0021 30.226 70.7124 29.5283C69.4439 28.8095 68.4397 27.837 67.6997 26.6107C66.9598 25.3845 66.5898 24.0103 66.5898 22.4881C66.5898 20.9659 66.9598 19.6023 67.6997 18.3972C68.4397 17.1921 69.4439 16.2407 70.7124 15.5431C71.9809 14.8242 73.4186 14.4648 75.0253 14.4648C76.6321 14.4648 78.0697 14.8137 79.3382 15.5113C80.6067 16.209 81.611 17.171 82.3509 18.3972C83.0909 19.6023 83.4609 20.9659 83.4609 22.4881C83.4609 24.0103 83.0909 25.3845 82.3509 26.6107C81.611 27.837 80.6067 28.8095 79.3382 29.5283C78.0697 30.226 76.6321 30.5748 75.0253 30.5748ZM75.0253 26.1668C75.723 26.1668 76.3361 26.0188 76.8647 25.7228C77.3932 25.4057 77.7949 24.9723 78.0697 24.4226C78.3657 23.8518 78.5137 23.2069 78.5137 22.4881C78.5137 21.7693 78.3657 21.1456 78.0697 20.6171C77.7737 20.0674 77.3615 19.6446 76.8329 19.3486C76.3255 19.0314 75.723 18.8729 75.0253 18.8729C74.3488 18.8729 73.7463 19.0314 73.2177 19.3486C72.6892 19.6446 72.2769 20.0674 71.9809 20.6171C71.6849 21.1668 71.537 21.801 71.537 22.5198C71.537 23.2175 71.6849 23.8518 71.9809 24.4226C72.2769 24.9723 72.6892 25.4057 73.2177 25.7228C73.7463 26.0188 74.3488 26.1668 75.0253 26.1668Z" fill="black"/>
<path fill-rule="evenodd" clip-rule="evenodd" d="M87.3066 36.251C88.5962 36.8429 90.0867 37.1389 91.7781 37.1389C93.4271 37.1389 94.8965 36.8112 96.1861 36.1558C97.4758 35.5004 98.4905 34.5914 99.2305 33.4286C99.9704 32.2658 100.341 30.8916 100.341 29.3059V14.8133H95.5835V15.8488C95.2297 15.551 94.8279 15.301 94.3785 15.0987C93.5539 14.697 92.6131 14.4961 91.5561 14.4961C90.1396 14.4961 88.8816 14.8344 87.7823 15.5109C86.6828 16.1663 85.8161 17.0754 85.1818 18.2382C84.5475 19.3799 84.2305 20.6695 84.2305 22.1072C84.2305 23.5237 84.5475 24.8133 85.1818 25.9761C85.8161 27.1389 86.6828 28.0586 87.7823 28.7351C88.8816 29.4116 90.1396 29.7499 91.5561 29.7499C92.592 29.7499 93.5328 29.5491 94.3785 29.1474C94.7881 28.9528 95.1581 28.7235 95.4884 28.4594V29.4328C95.4884 30.511 95.1396 31.3461 94.4419 31.9381C93.7654 32.5301 92.8246 32.826 91.6195 32.826C90.647 32.826 89.8119 32.6569 89.1142 32.3186C88.4377 31.9804 87.8245 31.4835 87.2748 30.8281L84.2939 33.8091C85.0338 34.8662 86.0381 35.6802 87.3066 36.251ZM94.2199 24.993C93.7336 25.289 93.1523 25.437 92.4757 25.437C91.7992 25.437 91.2072 25.289 90.6998 24.993C90.2135 24.697 89.833 24.2953 89.5582 23.7879C89.2833 23.2594 89.1459 22.6991 89.1459 22.1072C89.1459 21.4729 89.2833 20.9021 89.5582 20.3947C89.833 19.8873 90.2241 19.4856 90.7315 19.1896C91.2389 18.8936 91.8203 18.7456 92.4757 18.7456C93.1523 18.7456 93.7336 18.8936 94.2199 19.1896C94.7273 19.4856 95.1078 19.8873 95.3616 20.3947C95.6364 20.9021 95.7738 21.4729 95.7738 22.1072C95.7738 22.7414 95.6364 23.3122 95.3616 23.8196C95.1078 24.3059 94.7273 24.697 94.2199 24.993Z" fill="black"/>
<path fill-rule="evenodd" clip-rule="evenodd" d="M110.549 30.5748C108.963 30.5748 107.525 30.226 106.236 29.5283C104.967 28.8095 103.963 27.837 103.223 26.6107C102.483 25.3845 102.113 24.0103 102.113 22.4881C102.113 20.9659 102.483 19.6023 103.223 18.3972C103.963 17.1921 104.967 16.2407 106.236 15.5431C107.504 14.8242 108.942 14.4648 110.549 14.4648C112.155 14.4648 113.593 14.8137 114.861 15.5113C116.13 16.209 117.134 17.171 117.874 18.3972C118.614 19.6023 118.984 20.9659 118.984 22.4881C118.984 24.0103 118.614 25.3845 117.874 26.6107C117.134 27.837 116.13 28.8095 114.861 29.5283C113.593 30.226 112.155 30.5748 110.549 30.5748ZM110.549 26.1668C111.246 26.1668 111.859 26.0188 112.388 25.7228C112.916 25.4057 113.318 24.9723 113.593 24.4226C113.889 23.8518 114.037 23.2069 114.037 22.4881C114.037 21.7693 113.889 21.1456 113.593 20.6171C113.297 20.0674 112.885 19.6446 112.356 19.3486C111.849 19.0314 111.246 18.8729 110.549 18.8729C109.872 18.8729 109.269 19.0314 108.741 19.3486C108.212 19.6446 107.8 20.0674 107.504 20.6171C107.208 21.1668 107.06 21.801 107.06 22.5198C107.06 23.2175 107.208 23.8518 107.504 24.4226C107.8 24.9723 108.212 25.4057 108.741 25.7228C109.269 26.0188 109.872 26.1668 110.549 26.1668Z" fill="black"/>
<path fill-rule="evenodd" clip-rule="evenodd" d="M137.281 30.5427C136.246 30.5427 135.294 30.3419 134.427 29.9402C133.971 29.7288 133.559 29.4764 133.191 29.183V36.7267H128.402V14.8133H133.254V15.877C133.606 15.5891 133.997 15.3402 134.427 15.1304C135.294 14.7075 136.246 14.4961 137.281 14.4961C138.74 14.4961 140.03 14.845 141.15 15.5427C142.292 16.2403 143.18 17.1917 143.814 18.3968C144.47 19.6019 144.797 20.9761 144.797 22.5194C144.797 24.0628 144.47 25.437 143.814 26.6421C143.18 27.8472 142.292 28.7985 141.15 29.4962C140.03 30.1939 138.74 30.5427 137.281 30.5427ZM136.394 26.1664C137.091 26.1664 137.694 26.0078 138.201 25.6907C138.73 25.3736 139.142 24.9401 139.438 24.3905C139.734 23.8408 139.882 23.2171 139.882 22.5194C139.882 21.8006 139.734 21.1664 139.438 20.6167C139.142 20.067 138.73 19.6442 138.201 19.3482C137.694 19.031 137.102 18.8725 136.425 18.8725C135.749 18.8725 135.146 19.031 134.618 19.3482C134.11 19.6442 133.709 20.067 133.413 20.6167C133.117 21.1664 132.969 21.8006 132.969 22.5194C132.969 23.2171 133.106 23.8408 133.381 24.3905C133.677 24.9401 134.089 25.3736 134.618 25.6907C135.146 26.0078 135.738 26.1664 136.394 26.1664Z" fill="black"/>
<path d="M149.544 30.2552C150.432 30.4878 151.33 30.604 152.239 30.604C154.163 30.604 155.685 30.1601 156.806 29.2721C157.947 28.3842 158.518 27.1897 158.518 25.6886C158.518 24.7161 158.339 23.9338 157.979 23.3419C157.62 22.7288 157.155 22.2425 156.584 21.8831C156.013 21.5237 155.41 21.2382 154.776 21.0268C154.142 20.8154 153.539 20.6357 152.969 20.4877C152.398 20.3397 151.933 20.1706 151.573 19.9803C151.214 19.79 151.034 19.5363 151.034 19.2192C151.034 18.9232 151.172 18.7012 151.446 18.5532C151.721 18.3841 152.133 18.2996 152.683 18.2996C153.254 18.2996 153.835 18.4158 154.427 18.6484C155.04 18.8809 155.59 19.2827 156.076 19.8535L158.835 17.0628C158.138 16.1748 157.229 15.5088 156.108 15.0649C155.009 14.5998 153.804 14.3672 152.493 14.3672C151.246 14.3672 150.157 14.5786 149.227 15.0014C148.296 15.4243 147.577 16.0057 147.07 16.7456C146.563 17.4644 146.309 18.3207 146.309 19.3144C146.309 20.2446 146.489 21.0163 146.848 21.6294C147.207 22.2213 147.673 22.6865 148.243 23.0247C148.814 23.363 149.417 23.6273 150.051 23.8175C150.685 24.0078 151.288 24.1875 151.859 24.3567C152.429 24.5047 152.895 24.6844 153.254 24.8958C153.635 25.0861 153.825 25.3715 153.825 25.752C153.825 26.048 153.666 26.2805 153.349 26.4497C153.053 26.6188 152.62 26.7034 152.049 26.7034C151.224 26.7034 150.463 26.5554 149.766 26.2594C149.068 25.9423 148.465 25.5089 147.958 24.9592L145.199 27.7499C145.728 28.3207 146.362 28.8282 147.102 29.2721C147.863 29.6949 148.677 30.0226 149.544 30.2552Z" fill="black"/>
<path d="M167.367 30.5736C165.951 30.5736 164.693 30.2882 163.594 29.7174C162.515 29.1254 161.67 28.322 161.057 27.3072C160.443 26.2713 160.137 25.0874 160.137 23.7554V14.8125H164.989V23.692C164.989 24.2205 165.073 24.6751 165.243 25.0556C165.433 25.4362 165.708 25.7322 166.067 25.9436C166.427 26.155 166.86 26.2607 167.367 26.2607C168.086 26.2607 168.657 26.0387 169.08 25.5947C169.503 25.1296 169.714 24.4954 169.714 23.692V14.8125H174.566V23.7237C174.566 25.0768 174.26 26.2713 173.646 27.3072C173.033 28.322 172.188 29.1254 171.109 29.7174C170.031 30.2882 168.784 30.5736 167.367 30.5736Z" fill="black"/>
<path d="M181.832 14.8133H176.98V30.2256H181.832V21.2192C181.832 20.6907 181.938 20.2467 182.149 19.8873C182.382 19.5279 182.689 19.253 183.069 19.0628C183.45 18.8513 183.883 18.7456 184.369 18.7456C185.067 18.7456 185.648 18.9676 186.113 19.4116C186.6 19.8344 186.843 20.437 186.843 21.2192V30.2256H191.695V21.2192C191.695 20.6907 191.801 20.2467 192.012 19.8873C192.245 19.5279 192.551 19.253 192.932 19.0628C193.312 18.8513 193.746 18.7456 194.232 18.7456C194.93 18.7456 195.511 18.9676 195.976 19.4116C196.462 19.8344 196.705 20.437 196.705 21.2192V30.2256H201.558V20.6801C201.558 19.3905 201.283 18.2911 200.733 17.382C200.204 16.4517 199.475 15.7435 198.545 15.2573C197.636 14.7498 196.589 14.4961 195.405 14.4961C194.2 14.4961 193.111 14.7604 192.139 15.289C191.507 15.6257 190.955 16.0603 190.482 16.5927C190.041 16.0358 189.505 15.5801 188.872 15.2255C188.027 14.7393 187.065 14.4961 185.987 14.4961C184.845 14.4961 183.82 14.7393 182.911 15.2255C182.515 15.4278 182.156 15.6701 181.832 15.9524V14.8133Z" fill="black"/>
</svg>
