<svg width="168" height="41" viewBox="0 0 168 41" fill="none" xmlns="http://www.w3.org/2000/svg">
<path d="M49.1602 28.8592H61.1122V25.2592H53.4082V11.6992H49.1602V28.8592Z" fill="black"/>
<path d="M68.1965 26.4584C66.4925 26.4584 65.6045 24.9704 65.6045 22.7384C65.6045 20.5064 66.4925 18.9944 68.1965 18.9944C69.9005 18.9944 70.8125 20.5064 70.8125 22.7384C70.8125 24.9704 69.9005 26.4584 68.1965 26.4584ZM68.2205 29.2424C72.1805 29.2424 74.7725 26.4344 74.7725 22.7384C74.7725 19.0424 72.1805 16.2344 68.2205 16.2344C64.2845 16.2344 61.6445 19.0424 61.6445 22.7384C61.6445 26.4344 64.2845 29.2424 68.2205 29.2424Z" fill="black"/>
<path d="M81.6273 33.1069C83.4513 33.1069 85.0593 32.6989 86.1393 31.7389C87.1233 30.8509 87.7713 29.5069 87.7713 27.6589V16.5709H84.0273V17.8909H83.9793C83.2593 16.8589 82.1553 16.2109 80.5233 16.2109C77.4753 16.2109 75.3633 18.7549 75.3633 22.3549C75.3633 26.1229 77.9313 28.1869 80.6913 28.1869C82.1793 28.1869 83.1153 27.5869 83.8353 26.7709H83.9313V27.9949C83.9313 29.4829 83.2353 30.3469 81.5793 30.3469C80.2833 30.3469 79.6353 29.7949 79.4193 29.1469H75.6273C76.0113 31.7149 78.2433 33.1069 81.6273 33.1069ZM81.6033 25.2829C80.1393 25.2829 79.1793 24.0829 79.1793 22.2349C79.1793 20.3629 80.1393 19.1629 81.6033 19.1629C83.2353 19.1629 84.0993 20.5549 84.0993 22.2109C84.0993 23.9389 83.3073 25.2829 81.6033 25.2829Z" fill="black"/>
<path d="M95.47 26.4584C93.766 26.4584 92.878 24.9704 92.878 22.7384C92.878 20.5064 93.766 18.9944 95.47 18.9944C97.174 18.9944 98.086 20.5064 98.086 22.7384C98.086 24.9704 97.174 26.4584 95.47 26.4584ZM95.494 29.2424C99.454 29.2424 102.046 26.4344 102.046 22.7384C102.046 19.0424 99.454 16.2344 95.494 16.2344C91.558 16.2344 88.918 19.0424 88.918 22.7384C88.918 26.4344 91.558 29.2424 95.494 29.2424Z" fill="black"/>
<path d="M103.188 28.8592H107.1V16.5712H103.188V28.8592ZM103.188 14.8672H107.1V11.6992H103.188V14.8672Z" fill="black"/>
<path d="M108.793 32.9149H112.705V27.5869H112.753C113.521 28.6189 114.649 29.2429 116.233 29.2429C119.449 29.2429 121.585 26.6989 121.585 22.7149C121.585 19.0189 119.593 16.2109 116.329 16.2109C114.649 16.2109 113.449 16.9549 112.609 18.0589H112.537V16.5709H108.793V32.9149ZM115.225 26.2189C113.545 26.2189 112.585 24.8509 112.585 22.8589C112.585 20.8669 113.449 19.3549 115.153 19.3549C116.833 19.3549 117.625 20.7469 117.625 22.8589C117.625 24.9469 116.713 26.2189 115.225 26.2189Z" fill="black"/>
<path d="M127.956 29.2429C131.172 29.2429 133.548 27.8509 133.548 25.1629C133.548 22.0189 131.004 21.4669 128.844 21.1069C127.284 20.8189 125.892 20.6989 125.892 19.8349C125.892 19.0669 126.636 18.7069 127.596 18.7069C128.676 18.7069 129.42 19.0429 129.564 20.1469H133.164C132.972 17.7229 131.1 16.2109 127.62 16.2109C124.716 16.2109 122.316 17.5549 122.316 20.1469C122.316 23.0269 124.596 23.6029 126.732 23.9629C128.364 24.2509 129.852 24.3709 129.852 25.4749C129.852 26.2669 129.108 26.6989 127.932 26.6989C126.636 26.6989 125.82 26.0989 125.676 24.8749H121.98C122.1 27.5869 124.356 29.2429 127.956 29.2429Z" fill="black"/>
<path d="M138.863 29.2183C140.567 29.2183 141.647 28.5463 142.535 27.3463H142.607V28.8583H146.351V16.5703H142.439V23.4343C142.439 24.8983 141.623 25.9063 140.279 25.9063C139.031 25.9063 138.431 25.1623 138.431 23.8183V16.5703H134.543V24.6343C134.543 27.3703 136.031 29.2183 138.863 29.2183Z" fill="black"/>
<path d="M148.051 28.8589H151.963V21.9709C151.963 20.5069 152.683 19.4749 153.907 19.4749C155.083 19.4749 155.635 20.2429 155.635 21.5629V28.8589H159.547V21.9709C159.547 20.5069 160.243 19.4749 161.491 19.4749C162.667 19.4749 163.219 20.2429 163.219 21.5629V28.8589H167.131V20.8669C167.131 18.1069 165.739 16.2109 162.955 16.2109C161.371 16.2109 160.051 16.8829 159.091 18.3709H159.043C158.419 17.0509 157.195 16.2109 155.587 16.2109C153.811 16.2109 152.635 17.0509 151.867 18.3229H151.795V16.5709H148.051V28.8589Z" fill="black"/>
<path fill-rule="evenodd" clip-rule="evenodd" d="M9.18554 3.95724C7.75488 4.9576 6.46118 6.14035 5.33813 7.47177C9.92743 7.0457 15.758 7.74142 22.5272 11.126C29.7558 14.7402 35.5766 14.8624 39.6276 14.081C39.26 12.9682 38.7972 11.8986 38.2491 10.8818C33.6118 11.3709 27.6668 10.7234 20.7384 7.25935C16.3388 5.05955 12.4606 4.15338 9.18554 3.95724ZM35.5402 7.02602C31.8781 2.93437 26.5562 0.359375 20.6328 0.359375C18.8933 0.359375 17.2055 0.581482 15.5965 0.998855C17.7757 1.59346 20.0907 2.46336 22.5272 3.68164C27.5998 6.2179 31.9792 7.03453 35.5402 7.02602ZM40.4937 17.9874C35.5997 18.9538 28.8416 18.7554 20.7384 14.7037C13.1628 10.9159 7.13324 10.9637 3.06671 11.8674C2.85681 11.914 2.65185 11.963 2.45184 12.014C1.91943 13.1719 1.49445 14.3895 1.18951 15.6539C1.5152 15.5669 1.85174 15.4841 2.19897 15.4069C7.13238 14.3106 14.1029 14.3582 22.5272 18.5704C30.1029 22.3582 36.1324 22.3106 40.199 21.4069C40.3383 21.376 40.4756 21.344 40.6106 21.3109C40.6254 20.9956 40.6328 20.6784 40.6328 20.3594C40.6328 19.5569 40.5856 18.7654 40.4937 17.9874ZM39.9576 25.5317C35.1111 26.379 28.5498 26.0537 20.7384 22.1481C13.1628 18.3603 7.13324 18.4081 3.06671 19.3118C2.16406 19.5123 1.35205 19.7565 0.635743 20.0145C0.63379 20.1292 0.632812 20.2442 0.632812 20.3594C0.632812 31.4051 9.5871 40.3593 20.6328 40.3593C29.8899 40.3593 37.6781 34.0703 39.9576 25.5317Z" fill="black"/>
</svg>
